<svg width="218" height="1693" viewBox="0 0 218 1693" fill="none" xmlns="http://www.w3.org/2000/svg">
<path d="M161.531 34C297.284 171.278 -133.825 190.305 56.2229 365.36C215.537 512.105 180.6 605.638 161.531 626.661C-50.5829 860.506 -5.56075 975.062 161.531 1114.23C328.623 1253.4 34.2616 1383.1 47.3429 1539.32C59.7139 1687.06 195.573 1705 195.573 1705" stroke="#A0BAD8" stroke-width="10"/>
<circle cx="66" cy="204" r="21.5" fill="#16365C" stroke="#A0BAD8" stroke-width="5"/>
<circle cx="117" cy="428" r="21.5" fill="#16365C" stroke="#A0BAD8" stroke-width="5"/>
<circle cx="129" cy="664" r="21.5" fill="#16365C" stroke="#A0BAD8" stroke-width="5"/>
<circle cx="26" cy="846" r="21.5" fill="#16365C" stroke="#A0BAD8" stroke-width="5"/>
<circle cx="145" cy="24" r="21.5" fill="#16365C" stroke="#A0BAD8" stroke-width="5"/>
<circle cx="129" cy="1088" r="21.5" fill="#16365C" stroke="#A0BAD8" stroke-width="5"/>
<circle cx="77" cy="1439" r="21.5" fill="#16365C" stroke="#A0BAD8" stroke-width="5"/>
<path d="M144.571 36V17.44L139.707 18.496L139.003 15.904L144.923 13.6H147.963V36H144.571Z" fill="white"/>
<path d="M58.4296 215V212.152C58.4296 210.957 58.579 209.944 58.8776 209.112C59.1763 208.259 59.667 207.501 60.3496 206.84C61.0323 206.157 61.9176 205.485 63.0056 204.824L66.0776 202.936C67.3363 202.168 68.243 201.453 68.7976 200.792C69.3736 200.131 69.6616 199.363 69.6616 198.488C69.6616 197.549 69.3416 196.803 68.7016 196.248C68.0616 195.693 67.123 195.416 65.8856 195.416C64.9896 195.416 64.1363 195.501 63.3256 195.672C62.5363 195.843 61.6616 196.088 60.7016 196.408L59.2936 196.888L58.3976 194.552L59.7416 193.912C60.915 193.357 62.067 192.952 63.1976 192.696C64.3283 192.419 65.427 192.28 66.4936 192.28C67.8803 192.28 69.0643 192.515 70.0456 192.984C71.0483 193.453 71.8163 194.136 72.3496 195.032C72.9043 195.928 73.1816 197.027 73.1816 198.328C73.1816 199.331 72.979 200.248 72.5736 201.08C72.1896 201.912 71.6243 202.68 70.8776 203.384C70.131 204.088 69.2243 204.76 68.1576 205.4L64.7976 207.416C63.8163 207.992 63.0696 208.589 62.5576 209.208C62.067 209.827 61.8216 210.691 61.8216 211.8V212.632L61.4056 211.8H73.5336V215H58.4296Z" fill="white"/>
<path d="M116.167 439.288C115.122 439.288 114.098 439.16 113.095 438.904C112.093 438.648 111.122 438.307 110.183 437.88L108.839 437.272L109.799 434.84L111.079 435.288C111.954 435.608 112.765 435.832 113.511 435.96C114.258 436.088 115.005 436.152 115.751 436.152C117.33 436.152 118.514 435.853 119.303 435.256C120.114 434.637 120.519 433.731 120.519 432.536C120.519 431.427 120.157 430.573 119.431 429.976C118.727 429.357 117.714 429.048 116.391 429.048H112.327V426.008H116.199C117.373 426.008 118.301 425.699 118.983 425.08C119.687 424.461 120.039 423.661 120.039 422.68C120.039 421.613 119.709 420.803 119.047 420.248C118.386 419.693 117.415 419.416 116.135 419.416C115.389 419.416 114.642 419.48 113.895 419.608C113.17 419.715 112.413 419.896 111.623 420.152L110.407 420.6L109.607 418.296L110.951 417.656C111.89 417.208 112.861 416.867 113.863 416.632C114.866 416.397 115.858 416.28 116.839 416.28C118.269 416.28 119.474 416.525 120.455 417.016C121.437 417.485 122.183 418.147 122.695 419C123.229 419.853 123.495 420.867 123.495 422.04C123.495 423.149 123.197 424.152 122.599 425.048C122.023 425.944 121.213 426.605 120.167 427.032V427.128C121.405 427.555 122.365 428.269 123.047 429.272C123.751 430.275 124.103 431.448 124.103 432.792C124.103 434.093 123.773 435.235 123.111 436.216C122.471 437.197 121.554 437.955 120.359 438.488C119.165 439.021 117.767 439.288 116.167 439.288Z" fill="white"/>
<path d="M138.068 669.72H134.804V675H131.38V669.72H122.292L120.084 667.704L126.132 652.6H129.876L124.052 666.584H131.38V660.312H134.804V666.584H138.068V669.72Z" fill="white"/>
<path d="M25.189 857.288C24.165 857.288 23.1303 857.171 22.085 856.936C21.061 856.701 20.037 856.339 19.013 855.848L17.765 855.272L18.725 852.744L20.197 853.256C20.8797 853.491 21.5943 853.693 22.341 853.864C23.109 854.013 23.8663 854.088 24.613 854.088C26.2983 854.088 27.5997 853.704 28.517 852.936C29.4343 852.168 29.893 851.091 29.893 849.704C29.893 848.509 29.4343 847.571 28.517 846.888C27.621 846.205 26.405 845.864 24.869 845.864C24.3783 845.864 23.8343 845.907 23.237 845.992C22.6397 846.056 22.053 846.152 21.477 846.28L19.397 845.8L20.357 834.568H32.549L32.133 837.8H23.077L22.597 843.368C23.2583 843.197 23.8983 843.08 24.517 843.016C25.1357 842.931 25.7223 842.888 26.277 842.888C27.7063 842.888 28.9437 843.165 29.989 843.72C31.0343 844.253 31.845 845.021 32.421 846.024C32.997 847.027 33.285 848.221 33.285 849.608C33.285 851.208 32.9543 852.584 32.293 853.736C31.653 854.867 30.725 855.741 29.509 856.36C28.3143 856.979 26.8743 857.288 25.189 857.288Z" fill="white"/>
<path d="M129.797 1099.32C127.984 1099.32 126.437 1098.91 125.157 1098.1C123.877 1097.29 122.896 1096.07 122.213 1094.42C121.531 1092.78 121.189 1090.72 121.189 1088.25C121.189 1085.71 121.573 1083.55 122.341 1081.78C123.131 1079.99 124.208 1078.63 125.573 1077.69C126.96 1076.75 128.549 1076.28 130.341 1076.28C131.195 1076.28 132.027 1076.35 132.837 1076.5C133.669 1076.65 134.544 1076.9 135.461 1077.24L136.261 1077.56L135.429 1080.18L134.565 1079.93C133.947 1079.74 133.349 1079.6 132.773 1079.51C132.219 1079.43 131.611 1079.38 130.949 1079.38C129.008 1079.38 127.472 1080.15 126.341 1081.69C125.232 1083.22 124.656 1085.51 124.613 1088.54C124.613 1090.35 124.805 1091.83 125.189 1092.98C125.573 1094.11 126.139 1094.96 126.885 1095.51C127.632 1096.05 128.571 1096.32 129.701 1096.34C131.003 1096.34 132.037 1096 132.805 1095.32C133.573 1094.62 133.957 1093.52 133.957 1092.02C133.957 1091.15 133.776 1090.41 133.413 1089.82C133.051 1089.2 132.539 1088.74 131.877 1088.44C131.237 1088.14 130.48 1087.99 129.605 1087.99C128.987 1087.99 128.368 1088.08 127.749 1088.25C127.152 1088.4 126.491 1088.62 125.765 1088.92L124.101 1089.59L123.909 1087.19L125.733 1086.3C126.544 1085.89 127.376 1085.59 128.229 1085.4C129.083 1085.19 129.925 1085.08 130.757 1085.08C132.059 1085.08 133.211 1085.37 134.213 1085.94C135.216 1086.5 136.005 1087.29 136.581 1088.31C137.157 1089.34 137.445 1090.53 137.445 1091.9C137.445 1093.5 137.115 1094.85 136.453 1095.96C135.792 1097.05 134.885 1097.88 133.733 1098.46C132.603 1099.03 131.291 1099.32 129.797 1099.32Z" fill="white"/>
<path d="M74.3133 1450L82.4093 1430.8H70.9853V1427.6H85.9933V1430.13L78.1533 1450H74.3133Z" fill="white"/>
</svg>
